<svg xmlns="http://www.w3.org/2000/svg" viewBox="0 0 1000 1000" xml:space="preserve"><switch><g><circle fill="#382B73" cx="500" cy="500" r="398"/><circle fill="#473080" cx="500" cy="500" r="344.3"/><path fill="#382B73" d="M546.3 357.2h2.3c2.3 0 4.5-.4 6.6-1.1 1-.4 2-.8 2.9-1.3 3.7-2 6.6-5.1 8.4-8.9.2-.4.4-.9.6-1.3.9-2.2 1.4-4.7 1.4-7.2 0-.6 0-1.2-.1-1.8 0-.2 0-.3-.1-.5-.1-.5-.1-1-.2-1.5 0-.2-.1-.4-.1-.7-.1-.4-.2-.7-.3-1.1-.1-.3-.2-.5-.3-.8-.1-.2-.1-.4-.2-.6-.2-.6-.5-1.1-.7-1.7 0-.1-.1-.2-.1-.3-.2-.4-.4-.7-.6-1-3.4-5.9-9.8-9.9-17.2-9.9h-5.1l41.9-56.2c1.8-2.4 2.7-4.9 3-7.4.7-6.6-3.4-12.8-9.3-15.3-.4-.2-.7-.3-1.1-.4-1.9-.6-3.9-.8-6-.6-.5.1-.9.1-1.4.2-.4.1-.9.2-1.3.3-.9.3-1.8.6-2.6 1.1l-2.7 1.4-48.2 24.9c-9.8 5.1-21.5 5.1-31.3 0l-48.2-24.9-2.7-1.4c-.9-.5-1.8-.8-2.6-1.1-.4-.1-.9-.3-1.3-.3-.5-.1-.9-.2-1.4-.2-1.3-.1-2.5-.1-3.7 0-1.2.2-2.4.5-3.5 1-5.5 2.3-9.5 8-9.4 14.2.1 2.9 1 5.8 3.1 8.6l41.9 56.2h-5.1c-7.3 0-13.7 4-17.2 9.9-.2.3-.4.7-.6 1 0 .1-.1.2-.1.3-.3.5-.5 1.1-.7 1.7-.1.2-.2.4-.2.6-.1.3-.2.5-.3.8-.1.4-.2.7-.3 1.1-.1.2-.1.4-.1.7-.1.5-.2 1-.2 1.5 0 .2 0 .3-.1.5-.1.6-.1 1.2-.1 1.8 0 2.6.5 5 1.4 7.2.2.5.4.9.6 1.3 1.8 3.8 4.8 6.9 8.4 8.9 1 .5 2 1 3.1 1.3 2 .7 4.1 1.1 6.4 1.1h2.3c-24.4 6.5-126.2 41.6-126.2 172.4v143.8c0 31.6 25.6 57.2 57.2 57.2H615.5c31.6 0 57.2-25.6 57.2-57.2V529.6c-.2-130.8-102-165.9-126.4-172.4z"/><g><path fill="#E7AD27" d="M541.1 335.9c-11.7-7.4-3.1-33.2-3.1-33.2l13-39c5.1-15.2-12.7-27.6-25.3-17.8L510 258.3c-5.8 4.6-14.1 4.6-19.9 0l-15.8-12.4c-12.6-9.9-30.3 2.6-25.3 17.8l13 39s8.6 25.8-3.1 33.2c0 0-131.4 25.1-131.4 173.6v143.8c0 31.6 25.6 57.2 57.2 57.2h230.7c31.6 0 57.2-25.6 57.2-57.2V509.6c-.1-148.6-131.5-173.7-131.5-173.7z"/><path fill="#FEDE3A" d="M530.2 335.9c-8.6-7.4-2.3-33.2-2.3-33.2l9.6-39c3.7-15.2-9.3-27.6-18.6-17.8l-11.6 12.4c-4.3 4.6-10.4 4.6-14.7 0L481 245.9c-9.3-9.9-22.3 2.6-18.6 17.8l9.6 39s6.3 25.8-2.3 33.2c0 0-96.8 25.1-96.8 173.6v143.8c0 31.6 18.8 57.2 42.1 57.2h169.8c23.2 0 42.1-25.6 42.1-57.2V509.6c.1-148.6-96.7-173.7-96.7-173.7z"/><path fill="#EF5A9D" d="M548.6 297.5h-97.2c-11 0-19.8 8.9-19.8 19.8 0 11 8.9 19.8 19.8 19.8h97.2c11 0 19.8-8.9 19.8-19.8s-8.9-19.8-19.8-19.8z"/><path fill="#A72973" d="M548.6 317.3h-97.2c-7.3 0-13.7-4-17.2-9.9-1.7 2.9-2.7 6.3-2.7 9.9 0 11 8.9 19.8 19.8 19.8h97.2c11 0 19.8-8.9 19.8-19.8 0-3.6-1-7-2.7-9.9-3.3 5.9-9.7 9.9-17 9.9z"/><path fill="#FEDE3A" d="m414.6 241.3 41.9 56.2h87l41.9-56.2c9.4-12.7-4.7-29.4-18.8-22.1l-50.9 26.4c-9.8 5.1-21.5 5.1-31.3 0l-50.9-26.4c-14.1-7.3-28.3 9.5-18.9 22.1z"/><path fill="#E7AD27" d="m436.2 220.6-2.7-1.4c-14-7.3-28.2 9.5-18.8 22.1l41.9 56.2h9.8L434 241.3c-4.3-7.3-2.4-16.1 2.2-20.7zM566.6 219.2l-2.7 1.4c4.5 4.6 6.5 13.3 2.2 20.7l-32.4 56.2h9.8l41.9-56.2c9.4-12.6-4.8-29.4-18.8-22.1z"/><g><path fill="#FFC733" d="M555.1 600c-8.9 9.2-20.9 15.2-36 18.1v11.8c0 5-1.6 9-4.7 12s-7.2 4.6-12.2 4.6c-5 0-9-1.5-12.2-4.6-3.1-3.1-4.7-7.1-4.7-12V619c-17.8-2.2-33.1-7.5-45.8-15.7-2.9-1.8-4.9-3.8-6.1-6-1.2-2.2-1.8-5.2-1.8-8.9 0-4.8 1.4-9 4.2-12.5 2.8-3.5 6.1-5.3 10-5.3 1.9 0 3.9.3 5.8 1 1.9.6 4.4 1.8 7.5 3.6 7.1 3.9 13.6 6.6 19.8 8.2 6.1 1.6 12.6 2.4 19.5 2.4 8.5 0 15-1.4 19.4-4.2 4.4-2.8 6.6-7 6.6-12.6 0-3.4-1.3-6.1-4-8.3-2.7-2.2-5.9-3.9-9.9-5.2-3.9-1.3-9.7-2.9-17.2-4.8-12-3-21.9-6.1-29.6-9.3-7.7-3.1-14.4-8-20-14.7-5.6-6.7-8.4-15.6-8.4-26.9 0-12.8 4.5-24 13.5-33.5s20.9-15.7 35.7-18.8v-12c0-4.8 1.6-8.8 4.8-11.9 3.2-3.1 7.2-4.7 12-4.7 5 0 9 1.5 12.2 4.6 3.1 3.1 4.7 7.1 4.7 12v11.3c13.3 2.1 26.3 7.1 39 15.2 2.9 1.9 4.9 4.1 6.1 6.4 1.2 2.3 1.8 5.2 1.8 8.6 0 4.8-1.4 9-4.3 12.5s-6.3 5.3-10.1 5.3c-1.9 0-3.8-.3-5.5-1-1.8-.6-4.3-1.8-7.7-3.6-1.1-.6-3.6-2-7.5-4s-8-3.6-12.4-4.8c-4.4-1.2-9.1-1.8-14.1-1.8-7.2 0-13.1 1.6-17.6 4.7-4.5 3.1-6.7 7.3-6.7 12.6 0 5.1 2.6 9 7.7 11.6 5.1 2.6 13.3 5.1 24.3 7.7 11.9 2.7 21.6 5.6 29.3 8.7 7.6 3.1 14.2 8 19.8 14.7 5.5 6.7 8.3 15.8 8.3 27.2-.2 13-4.6 24-13.5 33.2z"/><path fill="#2DBBA5" d="M555.1 590c-8.9 9.2-20.9 15.2-36 18.1v11.8c0 5-1.6 9-4.7 12s-7.2 4.6-12.2 4.6c-5 0-9-1.5-12.2-4.6-3.1-3.1-4.7-7.1-4.7-12V609c-17.8-2.2-33.1-7.5-45.8-15.7-2.9-1.8-4.9-3.8-6.1-6-1.2-2.2-1.8-5.2-1.8-8.9 0-4.8 1.4-9 4.2-12.5 2.8-3.5 6.1-5.3 10-5.3 1.9 0 3.9.3 5.8 1 1.9.6 4.4 1.8 7.5 3.6 7.1 3.9 13.6 6.6 19.8 8.2 6.1 1.6 12.6 2.4 19.5 2.4 8.5 0 15-1.4 19.4-4.2 4.4-2.8 6.6-7 6.6-12.6 0-3.4-1.3-6.1-4-8.3-2.7-2.2-5.9-3.9-9.9-5.2-3.9-1.3-9.7-2.9-17.2-4.8-12-3-21.9-6.1-29.6-9.3-7.7-3.1-14.4-8-20-14.7-5.6-6.7-8.4-15.6-8.4-26.9 0-12.8 4.5-24 13.5-33.5s20.9-15.7 35.7-18.8v-12c0-4.8 1.6-8.8 4.8-11.9 3.2-3.1 7.2-4.7 12-4.7 5 0 9 1.5 12.2 4.6 3.1 3.1 4.7 7.1 4.7 12v11.3c13.3 2.1 26.3 7.1 39 15.2 2.9 1.9 4.9 4.1 6.1 6.4 1.2 2.3 1.8 5.2 1.8 8.6 0 4.8-1.4 9-4.3 12.5s-6.3 5.3-10.1 5.3c-1.9 0-3.8-.3-5.5-1-1.8-.6-4.3-1.8-7.7-3.6-1.1-.6-3.6-2-7.5-4s-8-3.6-12.4-4.8c-4.4-1.2-9.1-1.8-14.1-1.8-7.2 0-13.1 1.6-17.6 4.7-4.5 3.1-6.7 7.3-6.7 12.6 0 5.1 2.6 9 7.7 11.6 5.1 2.6 13.3 5.1 24.3 7.7 11.9 2.7 21.6 5.6 29.3 8.7 7.6 3.1 14.2 8 19.8 14.7 5.5 6.7 8.3 15.8 8.3 27.2-.2 13-4.6 24-13.5 33.2z"/><path fill="#00A58C" d="M550.6 468.7c-1.9 0-3.8-.3-5.5-1-1.8-.6-4.3-1.8-7.7-3.6-1.1-.6-3.6-2-7.5-4s-8-3.6-12.4-4.8c-4.4-1.2-9.1-1.8-14.1-1.8-7.2 0-13.1 1.6-17.6 4.7-4.5 3.1-6.7 7.3-6.7 12.6 0 2.9.8 5.4 2.5 7.5 1.1-1.6 2.5-3 4.2-4.2 4.5-3.1 10.4-4.7 17.6-4.7 5 0 9.7.6 14.1 1.8 4.4 1.2 8.6 2.8 12.4 4.8 3.9 2 6.3 3.3 7.5 4 3.4 1.8 5.9 3 7.7 3.6 1.8.6 3.6 1 5.5 1 3.9 0 7.2-1.8 10.1-5.3 2.9-3.5 4.3-7.7 4.3-12.5 0-3.1-.5-5.8-1.6-8-.7 1.6-1.6 3.1-2.8 4.5-2.8 3.7-6.2 5.4-10 5.4zM463.6 531.3c7.7 3.1 17.6 6.2 29.6 9.3 7.5 1.9 13.3 3.5 17.2 4.8 3.9 1.3 7.2 3 9.9 5.2.5.4.9.8 1.3 1.3 1.8-2.4 2.6-5.4 2.6-9 0-3.4-1.3-6.1-4-8.3-2.7-2.2-5.9-3.9-9.9-5.2-3.9-1.3-9.7-2.9-17.2-4.8-12-3-21.9-6.1-29.6-9.3-7.7-3.1-14.4-8-20-14.7-4.2-4.9-6.8-11.1-7.9-18.5-.4 2.5-.6 5-.6 7.7 0 11.2 2.8 20.2 8.4 26.9 5.8 6.6 12.5 11.5 20.2 14.6zM555.1 574c-8.9 9.2-20.9 15.2-36 18.1v11.8c0 5-1.6 9-4.7 12s-7.2 4.6-12.2 4.6c-5 0-9-1.5-12.2-4.6-3.1-3.1-4.7-7.1-4.7-12V593c-17.8-2.2-33.1-7.5-45.8-15.7-2.9-1.8-4.9-3.8-6.1-6-.1-.2-.2-.5-.3-.7-1 2.4-1.5 5-1.5 7.8 0 3.7.6 6.7 1.8 8.9 1.2 2.3 3.3 4.3 6.1 6 12.7 8.2 27.9 13.4 45.8 15.7v10.8c0 5 1.6 9 4.7 12s7.2 4.6 12.2 4.6c5 0 9-1.5 12.2-4.6 3.1-3.1 4.7-7.1 4.7-12V608c15.1-2.9 27.1-8.9 36-18.1 8.9-9.2 13.4-20.2 13.4-33.2 0-2.9-.2-5.7-.6-8.4-1.5 9.9-5.7 18.4-12.8 25.7z"/><g><path fill="#00A58C" d="M518.8 570.8c5.5-3.3 11.3-9.2 11.7-18.9.8-18.9-22.5-23.2-22.5-23.2l-3.3 15c2.2.6 4.1 1.2 5.7 1.7 3.9 1.3 7.2 3 9.9 5.2s4 4.9 4 8.3c0 5.2-1.8 9.1-5.5 11.9z"/><path fill="#177BC0" d="M509.1 574.8c-.1 0-.3 0-.4.1-.1 0 .1 0 .4-.1z"/></g><g><path fill="#00A58C" d="M476 473c-1.9 16.2 5.2 21 5.2 21-1.4-2-2.2-4.4-2.2-7.1 0-5.3 2.2-9.5 6.7-12.6 3.7-2.6 8.4-4.1 14.1-4.5l-3.8-15.5c.1-.1-18.1 2.3-20 18.7z"/></g></g></g></g></switch></svg>