<svg class="w-44 h-44" xmlns="http://www.w3.org/2000/svg" viewBox="0 0 180 180" xml:space="preserve"><path fill="#FF916E" d="M154.622 90c0 35.69-28.933 64.623-64.623 64.623-35.689 0-64.621-28.932-64.621-64.623 0-35.689 28.932-64.622 64.621-64.622 35.69 0 64.623 28.932 64.623 64.622z"/><path fill="#FF916E" d="M63.483 119.922h-15.16a2.502 2.502 0 0 1-2.496-2.495 2.503 2.503 0 0 1 2.496-2.496h15.16a2.503 2.503 0 0 1 2.495 2.496 2.501 2.501 0 0 1-2.495 2.495zM72.763 129.63H48.922a2.505 2.505 0 0 1-2.496-2.498 2.503 2.503 0 0 1 2.496-2.494h23.841a2.502 2.502 0 0 1 2.495 2.494 2.503 2.503 0 0 1-2.495 2.498zM82.145 129.63h-3.672a2.504 2.504 0 0 1-2.495-2.497v-.001a2.502 2.502 0 0 1 2.495-2.494h3.672a2.502 2.502 0 0 1 2.495 2.494 2.503 2.503 0 0 1-2.495 2.498z"/><path fill="#FF916E" d="M58.572 122.566v-.568c0-1.217.995-2.211 2.211-2.211H48.708c1.217 0 2.213.994 2.213 2.211v.568a2.219 2.219 0 0 1-2.213 2.212h12.075a2.218 2.218 0 0 1-2.211-2.212zM115.136 124.443h13.896a2.295 2.295 0 0 1 2.287 2.287c0 1.26-1.03 2.289-2.287 2.289h-13.896a2.295 2.295 0 0 1-2.288-2.289 2.295 2.295 0 0 1 2.288-2.287zM106.63 115.546h21.853c1.26 0 2.288 1.03 2.288 2.287a2.293 2.293 0 0 1-2.288 2.288H106.63a2.294 2.294 0 0 1-2.288-2.288 2.294 2.294 0 0 1 2.288-2.287zM98.03 115.546h3.365a2.295 2.295 0 0 1 2.288 2.287v.001a2.294 2.294 0 0 1-2.288 2.287H98.03a2.294 2.294 0 0 1-2.288-2.288 2.294 2.294 0 0 1 2.288-2.287z"/><path fill="#FF916E" d="M119.638 122.019v.521a2.033 2.033 0 0 1-2.028 2.026h11.068a2.03 2.03 0 0 1-2.025-2.026v-.521c0-1.115.911-2.027 2.025-2.027H117.61c1.115 0 2.028.912 2.028 2.027z"/><g><path fill="#FF916E" d="M89.49 49.76h20.276a3.052 3.052 0 0 1 3.044 3.044v.442a3.053 3.053 0 0 1-3.044 3.044H89.49a3.053 3.053 0 0 1-3.043-3.044v-.442a3.052 3.052 0 0 1 3.043-3.044zM77.351 37.059h31.632a3.053 3.053 0 0 1 3.045 3.044v.443a3.053 3.053 0 0 1-3.045 3.043H77.351a3.052 3.052 0 0 1-3.044-3.043v-.443a3.053 3.053 0 0 1 3.044-3.044zM65.077 37.059h5.245a3.052 3.052 0 0 1 3.043 3.044v.443a3.051 3.051 0 0 1-3.043 3.043h-5.245a3.052 3.052 0 0 1-3.044-3.043v-.443a3.053 3.053 0 0 1 3.044-3.044z"/><path fill="#FF916E" d="M96.137 46.3v.743a2.901 2.901 0 0 1-2.894 2.893h15.798a2.903 2.903 0 0 1-2.895-2.893V46.3a2.902 2.902 0 0 1 2.895-2.893H93.243a2.9 2.9 0 0 1 2.894 2.893z"/></g><g><path fill="#FFF" d="M40.091 53.306h99.817v64.726H40.091z"/><path fill="#333" d="M42.709 55.67h94.581v59.998H42.709z"/><path fill="#333" d="M89.999 55.67h47.291v59.998H89.999z" opacity=".6"/><path fill="#FFF" d="M122.051 115.668h-9.788a1.347 1.347 0 0 1-1.342-1.342v-.545c0-.739.604-1.344 1.342-1.344h9.788c.738 0 1.343.604 1.343 1.344v.545c0 .738-.605 1.342-1.343 1.342z"/><path fill="#E6E6E6" d="M110.927 113.939c-.002.038-.006.075-.006.113a1.62 1.62 0 0 0 1.616 1.615h9.24a1.62 1.62 0 0 0 1.616-1.615c0-.038-.003-.075-.006-.113h-12.46z"/><g opacity=".3"><path fill="#FFF" d="M47.04 55.67h1.069v59.998H47.04zM54.033 55.67h1.068v59.998h-1.068zM61.025 55.67h1.067v59.998h-1.067zM68.017 55.67h1.068v59.998h-1.068zM75.009 55.67h1.067v59.998h-1.067zM82.001 55.67h1.068v59.998h-1.068zM88.992 55.67h1.068v59.998h-1.068z"/><g><path fill="#FFF" d="M89.324 67.458v1.069H41.142v-1.069zM89.324 60.584v1.067H41.142v-1.067zM89.324 74.45v1.067H41.142V74.45zM89.324 81.442v1.068H41.142v-1.068zM89.324 88.433v1.068H41.142v-1.068zM89.324 95.425v1.068H41.142v-1.068zM89.324 102.417v1.068H41.142v-1.068zM89.324 109.41v1.068H41.142v-1.069z"/></g></g></g><g><path fill="#FFF" d="M130.151 133.775c-3.797 0-13.984.047-19.104-2.6-11.273-5.835-24.116 1.092-24.232 9.832h39.154l4.182-7.232z"/><path fill="#FFF" d="M49.848 133.775c3.797 0 13.985.047 19.103-2.6 11.274-5.835 24.117 1.092 24.233 9.832H54.03l-4.182-7.232z"/><path fill="#333" d="M127.658 139.628v3.369h-34.27a1.276 1.276 0 0 1-1.207.867h-4.866a1.276 1.276 0 0 1-1.207-.867h-34.27v-3.369h34.207a1.274 1.274 0 0 0 1.269 1.378h4.866a1.275 1.275 0 0 0 1.268-1.378h34.21z"/></g><g><path fill="#FFDB76" d="M100.348 121.429c0 5.715-4.633 10.347-10.349 10.347-5.715 0-10.348-4.632-10.348-10.347 0-5.717 4.633-10.349 10.348-10.349 5.716.001 10.349 4.633 10.349 10.349z"/><path fill="#FFDB76" d="M95.684 112.783a10.3 10.3 0 0 1 1.701 5.683c0 5.716-4.633 10.349-10.348 10.349-2.101 0-4.052-.628-5.685-1.701a10.343 10.343 0 0 0 8.646 4.664c5.716 0 10.349-4.632 10.349-10.347a10.336 10.336 0 0 0-4.663-8.648zM89.954 114.264c-1.29 0-2.14-.49-2.191-.521a.692.692 0 0 1 .699-1.195c.064.037 1.372.75 3.143-.034a.693.693 0 0 1 .56 1.267 5.428 5.428 0 0 1-2.211.483z"/><path fill="#6EC5CE" d="M99.831 103.271s1.702 9.742-9.741 9.742l9.741-9.742z"/><path fill="#ADEBF6" d="M90.09 113.013s-1.703-9.742 9.741-9.742l-9.741 9.742z"/></g></svg>