<svg xmlns="http://www.w3.org/2000/svg" viewBox="0 0 1000 1000" xml:space="preserve"><switch><g><circle fill="#382B73" cx="500" cy="500" r="398"/><circle fill="#473080" cx="500" cy="500" r="344.3"/><path fill="#382B73" d="M736.3 395.2h-55.1v-41.3c0-8.8-7.1-15.9-15.9-15.9H300.8c-8.8 0-15.9 7.1-15.9 15.9v254.7c0 7.4 2.5 14.2 6.8 19.6L252.8 667l-1 1c-5.3 5.3-5.3 13.9 0 19.2l1 1 7.9 7.9 11.1 11.1 12.2 12.2 1 1c5.3 5.3 13.9 5.3 19.2 0l1-1 30.1-30.1 48.9-48.9h336.2c17.6 0 31.8-14.3 31.8-31.8V411.1c0-8.8-7.1-15.9-15.9-15.9zm-30.7 244.3c.1 0 .3.1.4.1-.2 0-.3-.1-.4-.1zm-4.5-1.4c.1 0 .1.1.2.1-.1-.1-.1-.1-.2-.1zm-19.8-29.4zm29.6 31.6h-.5.5z"/><g><path fill="#136DA0" d="M736.3 375.2h-55.1v213.4c0 17.6 14.3 31.8 31.8 31.8h7.3c17.6 0 31.8-14.3 31.8-31.8V391.1c.1-8.8-7-15.9-15.8-15.9z"/><path fill="#1CAEE4" d="M713.1 620.4c-17.5 0-31.8-14.2-31.8-31.7V333.8c0-8.8-7.1-15.9-15.9-15.9H300.8c-8.8 0-15.9 7.1-15.9 15.9v254.7c0 12.9 7.6 23.9 18.6 29 4 1.9 8.5 2.9 13.2 2.9H713.1z"/><g fill="#27C1E6"><path d="M681.3 598.7c0 8.4 3.3 16.1 8.7 21.7h23.2c-17.5 0-31.8-14.2-31.8-31.7v10zM300.8 327.9h364.6c8.8 0 15.9 7.1 15.9 15.9v-10c0-8.8-7.1-15.9-15.9-15.9H300.8c-8.8 0-15.9 7.1-15.9 15.9v10c-.1-8.8 7.1-15.9 15.9-15.9z"/></g><path fill="#009ADD" d="M683.5 600.4H316.7c-4.7 0-9.2-1-13.2-2.9-11-5-18.6-16.1-18.6-29v20c0 12.9 7.6 23.9 18.6 29 4 1.9 8.5 2.9 13.2 2.9H713.1c-13.4 0-24.9-8.3-29.6-20z"/><path fill="#E6E7E8" d="M400.2 497.8h-67.1c-4.7 0-8.6-3.8-8.6-8.6v-2.8c0-4.7 3.8-8.6 8.6-8.6h67.1c4.7 0 8.6 3.8 8.6 8.6v2.8c0 4.7-3.8 8.6-8.6 8.6zM626.7 497.8h-67.1c-4.7 0-8.6-3.8-8.6-8.6v-2.8c0-4.7 3.8-8.6 8.6-8.6h67.1c4.7 0 8.6 3.8 8.6 8.6v2.8c-.1 4.7-3.9 8.6-8.6 8.6zM400.2 538.1h-67.1c-4.7 0-8.6-3.8-8.6-8.6v-2.8c0-4.7 3.8-8.6 8.6-8.6h67.1c4.7 0 8.6 3.8 8.6 8.6v2.8c0 4.8-3.8 8.6-8.6 8.6zM626.7 538.1h-67.1c-4.7 0-8.6-3.8-8.6-8.6v-2.8c0-4.7 3.8-8.6 8.6-8.6h67.1c4.7 0 8.6 3.8 8.6 8.6v2.8c-.1 4.8-3.9 8.6-8.6 8.6zM400.2 578.4h-67.1c-4.7 0-8.6-3.8-8.6-8.6V567c0-4.7 3.8-8.6 8.6-8.6h67.1c4.7 0 8.6 3.8 8.6 8.6v2.8c0 4.8-3.8 8.6-8.6 8.6zM626.7 578.4h-67.1c-4.7 0-8.6-3.8-8.6-8.6V567c0-4.7 3.8-8.6 8.6-8.6h67.1c4.7 0 8.6 3.8 8.6 8.6v2.8c-.1 4.8-3.9 8.6-8.6 8.6zM626.7 373.1h-67.1c-4.7 0-8.6-3.8-8.6-8.6v-2.8c0-4.7 3.8-8.6 8.6-8.6h67.1c4.7 0 8.6 3.8 8.6 8.6v2.8c-.1 4.7-3.9 8.6-8.6 8.6zM626.7 413.4h-67.1c-4.7 0-8.6-3.8-8.6-8.6V402c0-4.7 3.8-8.6 8.6-8.6h67.1c4.7 0 8.6 3.8 8.6 8.6v2.8c-.1 4.8-3.9 8.6-8.6 8.6zM400.2 373.1h-67.1c-4.7 0-8.6-3.8-8.6-8.6v-2.8c0-4.7 3.8-8.6 8.6-8.6h67.1c4.7 0 8.6 3.8 8.6 8.6v2.8c0 4.7-3.8 8.6-8.6 8.6zM400.2 413.4h-67.1c-4.7 0-8.6-3.8-8.6-8.6V402c0-4.7 3.8-8.6 8.6-8.6h67.1c4.7 0 8.6 3.8 8.6 8.6v2.8c0 4.8-3.8 8.6-8.6 8.6zM400.2 453.7h-67.1c-4.7 0-8.6-3.8-8.6-8.6v-2.8c0-4.7 3.8-8.6 8.6-8.6h67.1c4.7 0 8.6 3.8 8.6 8.6v2.8c0 4.8-3.8 8.6-8.6 8.6zM626.7 453.7h-67.1c-4.7 0-8.6-3.8-8.6-8.6v-2.8c0-4.7 3.8-8.6 8.6-8.6h67.1c4.7 0 8.6 3.8 8.6 8.6v2.8c-.1 4.8-3.9 8.6-8.6 8.6z"/><path fill="#136DA0" d="M496.8 579.2c.2 0 .5-.1.7-.1.3-.1.5-.1.8-.2-.5.2-1 .2-1.5.3zm69.3-174.6c-47.4-47.4-124.4-47.4-171.8 0-41.7 41.7-46.7 106.1-15.2 153.3L362 575.1c-5.3-3.8-12.7-3.3-17.5 1.4l-1 1.1-40 40c4 1.9 8.5 2.9 13.2 2.9h84.2c.2-3.1-.6-6.3-2.5-8.9l17.7-17.7c46.9 29.2 109.3 23.4 150-17.3 47.4-47.6 47.4-124.5 0-172z"/><g><path fill="#FFF" d="m389.95 598.668-36.416-36.415 36.416-36.416 36.416 36.416z"/><path fill="#E6E7E8" d="m360.787 569.512-7.212-7.212 36.415-36.416 7.213 7.212z"/><path fill="#BCBEC0" d="m389.896 598.736-14-14 36.415-36.416 14 14z"/><path fill="#F7CB15" d="m251.7 667.2 33.3 33.3c5.3 5.3 13.9 5.3 19.2 0l92.8-92.8c5.3-5.3 5.3-13.9 0-19.2l-33.3-33.3c-5.3-5.3-13.9-5.3-19.2 0L251.7 648c-5.3 5.3-5.3 13.9 0 19.2z"/><path fill="#FFF335" d="m252.8 647 90.6-90.6c5.9-5.9 15.4-5.9 21.3 0l7.9 7.9c-5.9-5.9-15.4-5.9-21.3 0l-90.6 90.6c-5.9 5.9-5.9 15.4 0 21.3l-7.9-7.9c-5.9-5.9-5.9-15.5 0-21.3z"/><path fill="#E7AD27" d="m293.1 687.3 90.6-90.6c5.9-5.9 5.9-15.4 0-21.3l12.2 12.2c5.9 5.9 5.9 15.4 0 21.3l-90.6 90.6c-5.9 5.9-15.4 5.9-21.3 0l-12.2-12.2c5.9 5.8 15.4 5.8 21.3 0z"/><path fill="#FFF" d="M394.3 555.2c47.4 47.5 124.4 47.5 171.8 0 47.5-47.4 47.5-124.4 0-171.8-47.4-47.5-124.4-47.5-171.8 0-47.5 47.5-47.5 124.4 0 171.8zm22.1-22.1c-35.2-35.2-35.2-92.4 0-127.6 35.2-35.2 92.4-35.2 127.6 0 35.2 35.2 35.2 92.4 0 127.6-35.3 35.3-92.4 35.3-127.6 0z"/><path fill="#D1D3D4" d="M404.1 545.4c42 42 110.1 42 152.1 0s42-110.1 0-152.1-110.1-42-152.1 0-42 110.1 0 152.1zm12.3-139.9c35.2-35.2 92.4-35.2 127.6 0 35.2 35.2 35.2 92.4 0 127.6-35.2 35.2-92.4 35.2-127.6 0-35.3-35.2-35.3-92.3 0-127.6z"/><path fill="#1CAEE4" d="M416.4 533.1c1.6 1.6 3.3 3.2 5 4.6 1.2 1 2.4 2 3.7 3 6.1 4.7 12.7 8.6 19.6 11.5 1.2.5 2.4 1 3.7 1.5 7.5 2.8 15.3 4.6 23.2 5.4 1.2.1 2.4.2 3.7.3 7.5.4 15-.1 22.4-1.5 1.2-.2 2.4-.5 3.7-.8 6.7-1.6 13.3-4 19.6-7.1 1.2-.6 2.4-1.3 3.7-1.9 7-4 13.7-8.9 19.7-14.9 1.2-1.2 2.4-2.4 3.5-3.7 1.3-1.4 2.5-2.9 3.7-4.3 27.9-35.4 25.5-86.9-7.2-119.6-35.2-35.2-92.4-35.2-127.6 0-35.7 35.2-35.7 92.3-.4 127.5z"/><path fill="#009ADD" d="M416.4 415.5c35.2-35.2 92.4-35.2 127.6 0 16.3 16.3 25.1 37.3 26.3 58.6 1.3-24.7-7.4-49.8-26.3-68.6-35.2-35.2-92.4-35.2-127.6 0-18.9 18.9-27.6 44.1-26.3 68.8 1.2-21.4 9.9-42.4 26.3-58.8z"/><path fill="#009ADD" d="M528.2 446.4h-17.8v-8.5c0-8.4-6.8-15.1-15.1-15.1h-31.1c-8.4 0-15.1 6.8-15.1 15.1v8.5h-17.8c-5 0-9.1 4.1-9.1 9.1v65.9c0 5 4.1 9.1 9.1 9.1h97.1c5 0 9.1-4.1 9.1-9.1v-66c-.2-5-4.3-9-9.3-9zm-68.4-8.6c0-2.4 1.9-4.3 4.3-4.3h31.1c2.4 0 4.3 1.9 4.3 4.3v8.5h-39.7v-8.5z"/><g><path fill="#E7AD27" d="M422.1 456.3v55.1c0 5 4.1 9.1 9.1 9.1h97.1c5 0 9.1-4.1 9.1-9.1v-55.1c0-5-4.1-9.1-9.1-9.1h-97.1c-5.1 0-9.1 4.1-9.1 9.1z"/><path fill="#FEDE3A" d="M422.1 445.4v55.1c0 5 4.1 9.1 9.1 9.1h97.1c5 0 9.1-4.1 9.1-9.1v-55.1c0-5-4.1-9.1-9.1-9.1h-97.1c-5.1.1-9.1 4.1-9.1 9.1z"/><path fill="#E7AD27" d="M422.1 449v18.5c0 5 4.1 9.1 9.1 9.1h97.1c5 0 9.1-4.1 9.1-9.1V449c0-5-4.1-9.1-9.1-9.1h-97.1c-5.1.1-9.1 4.1-9.1 9.1z"/><path fill="#F7CB15" d="M422.1 445.4v18.5c0 5 4.1 9.1 9.1 9.1h97.1c5 0 9.1-4.1 9.1-9.1v-18.5c0-5-4.1-9.1-9.1-9.1h-97.1c-5.1.1-9.1 4.1-9.1 9.1z"/><path fill="#FEDE3A" d="M431.1 436.4h97.1c5 0 9.1 4.1 9.1 9.1v3.6c0-5-4.1-9.1-9.1-9.1h-97.1c-5 0-9.1 4.1-9.1 9.1v-3.6c.1-5.1 4.1-9.1 9.1-9.1z"/><path fill="#F7CB15" d="M503 485.3h4c2 0 3.6-1.6 3.6-3.6v-10.1c0-2-1.6-3.6-3.6-3.6h-4c-2 0-3.6 1.6-3.6 3.6v10.1c-.1 2 1.6 3.6 3.6 3.6z"/><path fill="#FFF" d="M503 481.7h4c2 0 3.6-1.6 3.6-3.6V468c0-2-1.6-3.6-3.6-3.6h-4c-2 0-3.6 1.6-3.6 3.6v10c-.1 2 1.6 3.7 3.6 3.7z"/><path fill="#D1D3D4" d="M503 478h4c2 0 3.6-1.6 3.6-3.6v3.6c0 2-1.6 3.6-3.6 3.6h-4c-2 0-3.6-1.6-3.6-3.6v-3.6c-.1 2 1.6 3.6 3.6 3.6z"/><path fill="#F7CB15" d="M452.4 485.3h4c2 0 3.6-1.6 3.6-3.6v-10.1c0-2-1.6-3.6-3.6-3.6h-4c-2 0-3.6 1.6-3.6 3.6v10.1c0 2 1.6 3.6 3.6 3.6z"/><path fill="#FFF" d="M452.4 481.7h4c2 0 3.6-1.6 3.6-3.6V468c0-2-1.6-3.6-3.6-3.6h-4c-2 0-3.6 1.6-3.6 3.6v10c0 2 1.6 3.7 3.6 3.7z"/><path fill="#D1D3D4" d="M452.4 478h4c2 0 3.6-1.6 3.6-3.6v3.6c0 2-1.6 3.6-3.6 3.6h-4c-2 0-3.6-1.6-3.6-3.6v-3.6c0 2 1.6 3.6 3.6 3.6z"/><g><path fill="#F7CB15" d="M449 436.4h10.9v-8.5c0-2.4 1.9-4.3 4.3-4.3h31.1c2.4 0 4.3 1.9 4.3 4.3v8.5h10.9v-8.5c0-8.4-6.8-15.1-15.1-15.1h-31.1c-8.4 0-15.1 6.8-15.1 15.1v8.5z"/></g><path fill="#FEDE3A" d="M464.1 412.7h31.1c8.4 0 15.1 6.8 15.1 15.1v8.5H508v-7.7c0-7.7-6.3-14-14-14h-28.7c-7.7 0-14 6.3-14 14v7.7H449v-8.5c0-8.3 6.7-15.1 15.1-15.1z"/><path fill="#E7AD27" d="M454.4 436.4v-8.5c0-5.4 4.3-9.7 9.7-9.7h31.1c5.4 0 9.7 4.3 9.7 9.7v8.5h-5.4v-8.5c0-2.4-1.9-4.3-4.3-4.3h-31.1c-2.4 0-4.3 1.9-4.3 4.3v8.5h-5.4z"/></g></g></g></g></switch></svg>