<svg xmlns="http://www.w3.org/2000/svg" viewBox="0 0 180 180" xml:space="preserve"><path fill="#333" d="M154.623 89.999c0 35.691-28.934 64.623-64.623 64.623-35.689 0-64.622-28.932-64.622-64.623C25.377 54.31 54.31 25.378 90 25.378c35.689 0 64.623 28.932 64.623 64.621z"/><path fill="#333" d="M77.737 118.353H58.938a2.652 2.652 0 0 1-2.644-2.644v-.68a2.651 2.651 0 0 1 2.644-2.644h18.799a2.65 2.65 0 0 1 2.644 2.644v.68a2.653 2.653 0 0 1-2.644 2.644zM76.251 129.955H52.604a2.652 2.652 0 0 1-2.644-2.644v-.68a2.651 2.651 0 0 1 2.644-2.644h23.647a2.651 2.651 0 0 1 2.643 2.644v.68a2.652 2.652 0 0 1-2.643 2.644zM92.507 129.955h-8.73a2.653 2.653 0 0 1-2.645-2.644v-.68a2.652 2.652 0 0 1 2.645-2.644h8.73a2.651 2.651 0 0 1 2.643 2.644v.68a2.652 2.652 0 0 1-2.643 2.644z"/><path fill="#333" d="M73.897 121.532v-.679a2.65 2.65 0 0 1 2.643-2.644H63.49a2.651 2.651 0 0 1 2.643 2.644v.679a2.651 2.651 0 0 1-2.643 2.644h13.05a2.65 2.65 0 0 1-2.643-2.644zM113.755 79.519H94.957a2.652 2.652 0 0 1-2.644-2.645v-.679a2.65 2.65 0 0 1 2.644-2.644h18.799a2.651 2.651 0 0 1 2.645 2.644v.679a2.655 2.655 0 0 1-2.646 2.645zM112.268 91.121H88.624a2.652 2.652 0 0 1-2.645-2.645v-.679a2.651 2.651 0 0 1 2.645-2.644h23.645a2.65 2.65 0 0 1 2.643 2.644v.679a2.652 2.652 0 0 1-2.644 2.645zM128.525 91.121h-8.729a2.653 2.653 0 0 1-2.644-2.645v-.679a2.651 2.651 0 0 1 2.644-2.644h8.729a2.65 2.65 0 0 1 2.644 2.644v.679a2.652 2.652 0 0 1-2.644 2.645z"/><path fill="#333" d="M109.915 82.698v-.678a2.65 2.65 0 0 1 2.644-2.644h-13.05a2.65 2.65 0 0 1 2.644 2.644v.679a2.651 2.651 0 0 1-2.644 2.644h13.05a2.653 2.653 0 0 1-2.644-2.645zM128.568 121.728h-17.051a1.619 1.619 0 0 1-1.614-1.615v-1.794a1.62 1.62 0 0 1 1.614-1.615h17.051a1.62 1.62 0 0 1 1.615 1.615v1.794a1.62 1.62 0 0 1-1.615 1.615zM119.944 129.064h-15.066a1.619 1.619 0 0 1-1.614-1.614v-.543a1.62 1.62 0 0 1 1.614-1.616h15.066a1.62 1.62 0 0 1 1.615 1.616v.543a1.62 1.62 0 0 1-1.615 1.614zM130.225 129.064h-5.635a1.619 1.619 0 0 1-1.614-1.614v-.543a1.62 1.62 0 0 1 1.614-1.616h5.635a1.62 1.62 0 0 1 1.615 1.616v.543c0 .888-.726 1.614-1.615 1.614z"/><path fill="#333" d="M118.399 123.738v-.43c0-.92.753-1.671 1.672-1.671h-8.253c.92 0 1.672.751 1.672 1.671v.43c0 .919-.752 1.672-1.672 1.672h8.253a1.678 1.678 0 0 1-1.672-1.672z"/><g><path fill="#333" d="M68.891 89.666H46.808a3.532 3.532 0 0 1-3.521-3.522v-.172a3.532 3.532 0 0 1 3.521-3.522h22.083a3.532 3.532 0 0 1 3.522 3.522v.172a3.532 3.532 0 0 1-3.522 3.522zM57.552 100.203H36.227a2.482 2.482 0 0 1-2.475-2.475v-.468a2.483 2.483 0 0 1 2.475-2.476h21.325a2.484 2.484 0 0 1 2.477 2.476v.469a2.482 2.482 0 0 1-2.477 2.474zM72.317 100.203h-7.779a2.482 2.482 0 0 1-2.476-2.475v-.468a2.483 2.483 0 0 1 2.476-2.476h7.779a2.484 2.484 0 0 1 2.477 2.476v.469a2.483 2.483 0 0 1-2.477 2.474z"/><path fill="#333" d="M55.49 92.553v-.615c0-1.32 1.08-2.401 2.401-2.401H46.039a2.409 2.409 0 0 1 2.401 2.401v.615a2.409 2.409 0 0 1-2.401 2.402h11.853a2.409 2.409 0 0 1-2.402-2.402z"/></g><g><path fill="#FFF" d="m48.213 63.546.002.327c.006 1.686 1.441 3.05 3.2 3.043h.061c-.038.315.124 50.806.124 50.806.022 4.792 4.095 8.667 9.101 8.649 5.004-.017 9.049-3.916 9.03-8.712 0 0-.208-50.492-.247-50.816 1.711-.058 3.076-1.4 3.071-3.052l-.001-.245H48.213z"/><path fill="#FFDB76" d="m61.867 73.152-.026-.018h-2.942l.029.018h2.939zM68.393 116.782c0-.629-.076-1.22-.213-1.777h.003l-.034-.123c-.012-.047-.024-.095-.038-.142a9.581 9.581 0 0 0-.069-.224l-.041-.125c-.028-.081-.059-.16-.089-.238l-.039-.101a6.522 6.522 0 0 0-.118-.271c-.007-.016-.012-.032-.02-.047l-.005-.01-.018-.041h-.002a7.754 7.754 0 0 0-.771-1.274h.002a1.535 1.535 0 0 0-.062-.079c-.057-.075-.114-.15-.173-.224a9.241 9.241 0 0 0-.094-.111c-.058-.069-.116-.138-.177-.205a5.165 5.165 0 0 0-.101-.114c-.06-.064-.119-.128-.181-.191-.037-.039-.072-.077-.11-.115l-.026-.027c-.014-.016-.03-.028-.046-.043a10.52 10.52 0 0 0-.212-.21h-.006c-1.148-1.087-2.521-1.992-3.904-2.889h-.041c-.824-.576-1.654-1.124-2.441-1.672a32.273 32.273 0 0 1-1.685-1.237h2.701v-1.321h-4.178c-.086-.091-.175-.181-.257-.273a8.245 8.245 0 0 1-.771-1h5.205v-1.321h-5.867a5.986 5.986 0 0 1-.306-1.275h6.173v-1.32h-6.207c.034-.458.114-.88.235-1.275h5.972v-1.32h-5.37a7.42 7.42 0 0 1 1.008-1.274h4.362v-1.321h-2.846c.965-.73 2.073-1.433 3.213-2.172.369-.241.741-.486 1.112-.739h-.039c1.33-.905 2.652-1.829 3.771-2.911h.012c.43-.418.826-.855 1.178-1.321h-.009c.303-.401.572-.825.802-1.275h.005c.211-.417.387-.855.519-1.319h-.004c.117-.407.202-.831.249-1.275.014-.136.024-.274.032-.413v-.006a7.74 7.74 0 0 0 .011-.406v-.013l-.001-.02a5.1 5.1 0 0 0-.008-.278 7.027 7.027 0 0 0-.67-2.795c-.379-.799-.897-1.508-1.501-2.147-1.059-1.119-2.369-2.035-3.715-2.922l-.651-.423h-2.939c.37.253.742.498 1.111.738 1.142.741 2.248 1.442 3.213 2.174h-2.845v1.32h4.362c.393.404.729.824 1.008 1.274h-5.37v1.321h5.972c.121.395.201.817.235 1.274h-6.207v1.32h6.172a5.897 5.897 0 0 1-.305 1.275h-5.867v1.319h5.206c-.227.348-.483.68-.772 1.003-.082.092-.17.182-.257.272h-4.177v1.321h2.7c-.527.418-1.093.827-1.685 1.237-.788.549-1.618 1.098-2.443 1.674h1.35-1.382c-.218.141-.436.281-.65.423-1.347.887-2.657 1.803-3.716 2.923-.604.639-1.123 1.347-1.502 2.146a7.058 7.058 0 0 0-.67 2.797c-.004.09-.007.18-.007.271l-.002.024.001.004-.001.01c0 .127.005.253.012.377v.035c.007.14.018.277.031.413h.001c.046.443.133.867.249 1.275h-.004c.131.464.308.902.518 1.321h.006c.228.448.499.872.801 1.273h-.008c.351.466.748.904 1.178 1.321h.012c1.117 1.08 2.438 2.004 3.768 2.909h-.031c.849.577 1.704 1.115 2.516 1.65.627.411 1.226.82 1.779 1.238h-2.814v1.32h4.338c.037.037.075.073.11.11.35.371.653.755.907 1.164h-5.355l-.001 1.32h5.966a5.98 5.98 0 0 1 .263 1.777h1.776z"/><g><path fill-rule="evenodd" clip-rule="evenodd" fill="#FF916E" d="M61.863 90.678h-.007.007zM68.388 99.262l-.001-.049c-.002-.08-.003-.16-.007-.239a7.07 7.07 0 0 0-1.429-4.064h.005a9.053 9.053 0 0 0-.391-.487c-.032-.038-.062-.074-.096-.111-.045-.051-.09-.102-.136-.151l-.193-.206-.067-.071-.062-.063-.104-.1c-.044-.043-.087-.088-.132-.131h-.004c-1.153-1.097-2.535-2.009-3.928-2.911h.013-.046c-.35-.243-.698-.483-1.046-.72-1.089-.737-2.15-1.451-3.086-2.191h2.709v-1.321h-4.184c-.029-.03-.059-.059-.086-.089a8.432 8.432 0 0 1-.941-1.187l5.21.001v-1.32h-5.872a5.972 5.972 0 0 1-.306-1.275h6.178l-.001-1.32h-6.212c.034-.457.114-.88.235-1.274h5.978l-.001-1.321h-5.374a7.45 7.45 0 0 1 .922-1.187c.027-.029.059-.059.087-.088h4.365v-1.32h-2.849a32.07 32.07 0 0 1 1.81-1.262c.811-.534 1.666-1.072 2.516-1.65h-2.941c-1.489.966-2.971 1.939-4.168 3.142-.698.704-1.298 1.491-1.719 2.394a7.058 7.058 0 0 0-.651 2.763c-.003.075-.004.151-.006.227l-.002.06V81.754c0 .284.016.56.043.826h.001c.046.443.133.868.249 1.275h-.004c.131.464.307.902.519 1.319h.005c.228.45.5.874.803 1.275h-.01c.351.466.748.903 1.178 1.321h.015c.925.895 1.987 1.682 3.079 2.439l.689.472h-.041c.852.578 1.706 1.116 2.516 1.65.639.419 1.249.835 1.811 1.261H60.4v1.321h4.345c.028.03.06.058.087.088.355.377.664.77.922 1.187h-5.375v1.32h5.977c.122.396.201.817.235 1.275h-6.212l.021 1.32h6.156a5.926 5.926 0 0 1-.305 1.275h-5.872v1.321h5.211a8.676 8.676 0 0 1-.94 1.185c-.028.03-.059.06-.088.089h-4.183v1.321h2.708c-.936.74-1.996 1.454-3.086 2.191-.345.234-.693.475-1.042.718h-.03c-.218.141-.435.281-.65.423-1.159.763-2.29 1.549-3.258 2.466h-.003l-.044.043-.013.012c-.119.115-.235.232-.349.352-.016.017-.034.032-.049.05-.039.041-.076.083-.113.124l-.078.083c-.088.1-.175.2-.259.303l-.032.041c-.072.09-.144.181-.213.272l-.032.041h.002a7.696 7.696 0 0 0-.773 1.274 6.02 6.02 0 0 0-.154.348c-.006.016-.012.035-.02.051-.037.097-.074.193-.109.291l-.034.102c-.026.083-.053.165-.077.248-.014.047-.025.093-.038.139l-.039.143h.002a7.465 7.465 0 0 0-.212 1.777h1.779c0-.656.095-1.24.263-1.777h5.963l.001-1.32h-5.356c.28-.449.62-.87 1.016-1.274h4.34v-1.32h-2.814c.957-.723 2.053-1.418 3.183-2.15.369-.24.74-.486 1.111-.738h-.041c.229-.157.458-.312.687-.47 1.091-.759 2.154-1.546 3.078-2.439h.016c.43-.417.826-.856 1.178-1.321h-.01c.302-.401.573-.824.804-1.273h.004c.211-.419.387-.857.519-1.321h-.004c.117-.408.202-.832.248-1.275h.022c.007-.268.021-.542.021-.825v-.006c-.004-.01-.004-.012-.004-.015zM61.876 73.135h-2.942l-.027.018h2.942l.027-.018z"/></g><g><path fill="#ADEBF6" d="M112.469 63.546h-3.84l.004-4.487s.067-1.587-.873-2.575c-.579-.61-1.508-.92-2.759-.92H64.749l-.074-.012c-.113-.007-.893-.033-1.351.385-.421.384-.51 1.142-.51 1.709v5.9h-3.84v-5.9c0-2.469.988-3.861 1.816-4.595 1.59-1.408 3.601-1.373 4.19-1.327h40.021c2.369 0 4.247.727 5.583 2.156 1.926 2.064 1.911 4.785 1.885 5.363v4.303z"/></g><g><path fill="#FFF" d="M102.839 63.546v.207c.004 1.069.914 1.932 2.029 1.928h.037c-.024.199.079 32.183.079 32.183.015 3.035 2.593 5.49 5.765 5.479 3.169-.01 5.732-2.48 5.721-5.517 0 0-.133-31.986-.157-32.19 1.084-.037 1.949-.888 1.946-1.935l-.002-.154h-15.418z"/><circle transform="rotate(-80.868 110.549 105.137)" fill="#FFF" cx="110.549" cy="105.135" r="21.236"/><path fill="#FF916E" d="M91.411 102.52a19.455 19.455 0 0 0-.178 2.615c0 10.65 8.665 19.315 19.316 19.315 10.65 0 19.316-8.665 19.316-19.315 0-.888-.061-1.759-.178-2.615H91.411zM116.366 97.342a1.407 1.407 0 1 1-2.815.001 1.407 1.407 0 0 1 2.815-.001z"/><path fill="#FF916E" d="M125.486 102.238a1.407 1.407 0 1 1-2.814 0 1.407 1.407 0 0 1 2.814 0z"/><path fill="#FFF" d="M115.857 109.534a.898.898 0 1 1-1.796.002.898.898 0 0 1 1.796-.002zM103.98 110.879a1.912 1.912 0 1 1-3.825 0 1.912 1.912 0 1 1 3.825 0zM122.974 107.065a.696.696 0 1 1-1.392.002.696.696 0 0 1 1.392-.002zM100.151 107.763a.696.696 0 1 1-1.391-.001.696.696 0 0 1 1.391.001zM111.23 107.495a1.328 1.328 0 1 1-2.657 0 1.328 1.328 0 0 1 2.657 0z"/><path fill="#FF916E" d="M106.045 99.896a1.472 1.472 0 1 1-2.945 0 1.472 1.472 0 0 1 2.945 0z"/><circle fill="#FF916E" cx="112.766" cy="91.503" r=".967"/><path fill="#FF916E" d="M121.54 93.495a.967.967 0 1 1-1.934 0 .967.967 0 0 1 1.934 0zM112.91 102.52a3.008 3.008 0 1 1-6.016 0 3.008 3.008 0 0 1 6.016 0zM123.663 102.52a3.649 3.649 0 0 1-7.296 0 3.647 3.647 0 0 1 7.296 0zM106.045 93.495a2.438 2.438 0 1 1-4.876 0 2.438 2.438 0 1 1 4.876 0zM99.455 101.943a3.016 3.016 0 1 1-6.032-.002 3.016 3.016 0 0 1 6.032.002z"/></g></g><g><path fill="#FFF" d="M85.752 136.776h-8.573a.385.385 0 0 1 0-.769h8.573a.384.384 0 1 1 0 .769zM88.732 133.636h-1.385a.385.385 0 0 1 0-.769h1.385a.384.384 0 0 1 0 .769zM85.752 133.636h-5.221a.385.385 0 0 1 0-.769h5.221a.385.385 0 1 1 0 .769zM96.742 133.636H90.44a.385.385 0 0 1 0-.769h6.302a.385.385 0 1 1 0 .769zM102.82 140.384h-1.92a.385.385 0 0 1 0-.769h1.92a.384.384 0 0 1 0 .769zm-3.84 0h-1.92a.385.385 0 0 1 0-.769h1.92c.212 0 .383.172.383.384a.383.383 0 0 1-.383.385zm-3.84 0h-1.92a.385.385 0 0 1 0-.769h1.92c.212 0 .383.172.383.384a.383.383 0 0 1-.383.385zm-3.841 0h-1.92a.384.384 0 0 1 0-.769h1.92a.384.384 0 0 1 0 .769z"/></g><g><path fill="#FFF" d="M130.481 79.112h-5.9a.384.384 0 0 1 0-.768h5.9a.383.383 0 0 1 0 .768zM132.53 75.972h-.952a.385.385 0 1 1 0-.768h.952a.384.384 0 1 1 0 .768zM130.481 75.972h-3.593a.384.384 0 0 1 0-.768h3.593a.383.383 0 0 1 0 .768zM138.042 75.972h-4.336a.383.383 0 0 1 0-.768h4.336a.384.384 0 1 1 0 .768zM142.223 82.72h-1.92a.385.385 0 0 1 0-.768h1.92a.383.383 0 1 1 0 .768zm-3.84 0h-1.92a.385.385 0 0 1 0-.768h1.92a.383.383 0 1 1 0 .768zm-3.841 0h-1.92a.384.384 0 0 1 0-.768h1.92a.384.384 0 1 1 0 .768z"/></g><g><path fill="#FFF" d="M85.781 66.329h-4.767a.383.383 0 0 1 0-.768h4.767a.384.384 0 1 1 0 .768zM85.781 63.189h-2.902a.385.385 0 0 1 0-.768h2.902a.385.385 0 1 1 0 .768zM91.889 63.189h-3.502a.384.384 0 1 1 0-.768h3.502a.384.384 0 1 1 0 .768zM95.268 69.937h-1.92a.383.383 0 1 1 0-.768h1.92a.384.384 0 1 1 0 .768zm-3.84 0h-1.92a.383.383 0 1 1 0-.768h1.92a.384.384 0 1 1 0 .768zm-3.84 0h-.726a.384.384 0 1 1 0-.768h.726a.384.384 0 0 1 0 .768z"/></g><g><path fill="#FFF" d="M93.82 41.802h-5.897a.384.384 0 1 1 0-.768h5.897a.383.383 0 1 1 0 .768zM95.87 38.662h-.952a.385.385 0 0 1 0-.769h.952a.385.385 0 1 1 0 .769zM93.82 38.662h-3.592a.384.384 0 0 1 0-.769h3.592a.384.384 0 0 1 0 .769zM101.38 38.662h-4.335a.384.384 0 0 1 0-.769h4.335a.384.384 0 1 1 0 .769zM105.563 45.409h-1.92a.384.384 0 0 1 0-.768h1.92a.384.384 0 1 1 0 .768zm-3.84 0h-1.92a.384.384 0 0 1 0-.768h1.92a.383.383 0 1 1 0 .768zm-3.84 0h-1.92a.384.384 0 0 1 0-.768h1.92a.383.383 0 1 1 0 .768z"/></g><g><path fill="#A3A3A3" d="M54.988 60.195a2.611 2.611 0 1 1-5.222 0 2.611 2.611 0 0 1 5.222 0zM58.18 61.211a1.323 1.323 0 1 1-2.646 0 1.323 1.323 0 0 1 2.646 0zM58.748 50.133a1.524 1.524 0 1 1-3.049 0 1.524 1.524 0 0 1 3.049 0zM58.381 54.943a1.984 1.984 0 1 1-3.969-.001 1.984 1.984 0 0 1 3.969.001zM69.697 60.195a2.612 2.612 0 1 1-5.223-.001 2.612 2.612 0 0 1 5.223.001z"/></g></svg>