<svg version="1.1" id="Layer_1" xmlns="http://www.w3.org/2000/svg" x="0" y="0" viewBox="0 0 256 256" style="enable-background:new 0 0 256 256" xml:space="preserve"><style>.st0{fill:#382b73}.st2{fill:#27c1e6}.st3{fill:#009add}.st6{fill:#1caee4}.st7{fill:#bcbec0}.st8{fill:#fede3a}.st10{fill:#f7cb15}</style><switch><g><circle class="st0" cx="128" cy="128" r="119.4"/><circle cx="128" cy="128" r="103.299" style="fill:#473080"/><path class="st0" d="M191.583 195.117 173.335 72.71v-6.852a4.42 4.42 0 0 0-4.42-4.42h-73.77a5.69 5.69 0 0 0-5.633-4.905 4.915 4.915 0 0 0-4.914 4.905h-5.722a4.42 4.42 0 0 0-4.42 4.42v12.514c-.08.457-.11.93-.038 1.415l.038.253V197.204a4.42 4.42 0 0 0 4.42 4.42H92.58l.596 4 .607 4.073a4.42 4.42 0 0 0 5.024 3.72l52.273-7.793 8.818-1.314 27.965-4.169a4.42 4.42 0 0 0 3.72-5.024z"/><g><path class="st2" d="m187.863 193.141-89.056 13.276a4.42 4.42 0 0 1-5.024-3.72L74.417 72.787a4.42 4.42 0 0 1 3.72-5.024l89.056-13.276a4.42 4.42 0 0 1 5.024 3.72l19.366 129.91a4.42 4.42 0 0 1-3.72 5.024z"/><path class="st3" d="M172.533 60.33a4.41 4.41 0 0 0-3.618-1.892h-28.227l-62.552 9.325c-1.93.288-3.361 1.788-3.682 3.609v1.668l18.721 125.584h57.904l22.092-3.293a4.37 4.37 0 0 0 .163-1.127V65.711l-.801-5.381z"/><path d="M168.915 194.624h-90.04a4.42 4.42 0 0 1-4.42-4.42V58.859a4.42 4.42 0 0 1 4.42-4.42h90.04a4.42 4.42 0 0 1 4.42 4.42v131.345a4.42 4.42 0 0 1-4.42 4.42z" style="fill:#fff"/><path d="M93.623 57.439v13.927a3.727 3.727 0 0 1-3.723 3.723 3.727 3.727 0 0 1-3.723-3.723v-7.621h-3.164v7.621c0 3.798 3.089 6.887 6.887 6.887s6.887-3.089 6.887-6.887V57.439a7.22 7.22 0 0 0-.655-3h-3.828a4.086 4.086 0 0 1 1.319 3z" style="fill:#e6e7e8"/><path class="st6" d="M89.901 76.042a6.895 6.895 0 0 1-6.887-6.887v-7.621h3.164v7.621a3.727 3.727 0 0 0 3.723 3.723 3.727 3.727 0 0 0 3.723-3.723V55.229a4.118 4.118 0 0 0-4.113-4.113 3.336 3.336 0 0 0-3.332 3.333h-3.164a6.504 6.504 0 0 1 6.496-6.497c4.013 0 7.277 3.264 7.277 7.277v13.927c0 3.797-3.09 6.886-6.887 6.886z"/><path class="st7" d="M157.224 146.684H99.596a3 3 0 1 1 0-6h57.628a3 3 0 1 1 0 6zM109.728 161.851H87.596a3 3 0 1 1 0-6h22.132a3 3 0 1 1 0 6zM157.224 161.851h-35.496a3 3 0 1 1 0-6h35.496a3 3 0 1 1 0 6zM157.224 177.018H87.596a3 3 0 1 1 0-6h69.628a3 3 0 1 1 0 6zM87.596 146.684a3 3 0 1 1 0-6 3 3 0 1 1 0 6z"/><g><path class="st8" d="M74.454 89.018h98.881v24.5H74.454z"/></g><g><path class="st3" d="M150.561 126.611H95.595a2.52 2.52 0 0 1-2.52-2.52V85.899a2.52 2.52 0 0 1 2.52-2.52h54.965a2.52 2.52 0 0 1 2.52 2.52v38.192a2.52 2.52 0 0 1-2.519 2.52z"/><path class="st6" d="M150.561 123.461H95.595a2.52 2.52 0 0 1-2.52-2.52V82.749a2.52 2.52 0 0 1 2.52-2.52h54.965a2.52 2.52 0 0 1 2.52 2.52v38.192a2.52 2.52 0 0 1-2.519 2.52z"/><path class="st2" d="M122.487 110.429h1.181v13.033h-1.181z"/><path class="st3" d="M123.078 109.182c13.135 0 24.689-5.208 31.376-13.088.38-.448.577-1.023.577-1.61V82.749a2.52 2.52 0 0 0-2.52-2.52H93.645a2.52 2.52 0 0 0-2.52 2.52v11.735c0 .587.197 1.162.577 1.61 6.687 7.88 18.241 13.088 31.376 13.088z"/><path class="st6" d="M152.511 80.229H93.645a2.52 2.52 0 0 0-2.52 2.52v4.41a2.52 2.52 0 0 1 2.52-2.52h58.866a2.52 2.52 0 0 1 2.52 2.52v-4.41a2.52 2.52 0 0 0-2.52-2.52zM123.078 72.538c-5.421 0-9.685 2.575-9.901 5.906h2.528c.287-1.653 3.231-3.386 7.374-3.386 4.142 0 7.087 1.733 7.374 3.386h2.528c-.218-3.331-4.482-5.906-9.903-5.906z"/><path class="st8" d="M116.358 78.445h-3.832a.63.63 0 0 0-.63.63v1.155h5.092v-1.155a.63.63 0 0 0-.63-.63zM133.63 78.445h-3.832a.63.63 0 0 0-.63.63v1.155h5.092v-1.155a.63.63 0 0 0-.63-.63z"/><path class="st3" d="M130.452 78.445h1.265c-.242-2.588-4.011-4.646-8.639-4.646-4.628 0-8.397 2.058-8.639 4.646h1.265c.287-1.653 3.231-3.386 7.374-3.386 4.142-.001 7.087 1.733 7.374 3.386z"/><path class="st6" d="M120.007 80.216h6.143v23.361h-6.143z"/><path class="st2" d="M120.007 80.216h6.143v4.423h-6.143z"/><g><path d="M127.72 110.429h-9.284a.833.833 0 0 1-.833-.833v-5.185c0-.46.373-.833.833-.833h9.284c.46 0 .833.373.833.833v5.185c0 .46-.373.833-.833.833z" style="fill:#fff335"/><path class="st10" d="M127.72 109.626h-9.284a.833.833 0 0 1-.833-.833v.803c0 .46.373.833.833.833h9.284c.46 0 .833-.373.833-.833v-.803c0 .46-.373.833-.833.833zM125.923 107.799h-5.69a.734.734 0 0 1-.734-.734v-.856c0-.405.329-.734.734-.734h5.69c.405 0 .734.329.734.734v.856a.734.734 0 0 1-.734.734z"/></g></g></g></g></switch></svg>